<svg xmlns="http://www.w3.org/2000/svg" viewBox="0 0 549.69 146.46"><defs><style>.cls-1{fill:#fff;}.cls-2{fill:#00ef8b;}.cls-3{fill:#16ff99;}</style></defs><g id="Layer_2" data-name="Layer 2"><g id="Layer_1-2" data-name="Layer 1"><path class="cls-1" d="M201.64,73.06h-9.43v35.22H179V73.06h-6.81V61.77H179V57.39c0-11.39,7.11-17.22,17.91-17.22a23.3,23.3,0,0,1,5,.58V54a12.35,12.35,0,0,0-4.48-.87,4.8,4.8,0,0,0-5.15,5.16v3.5h9.43Zm19.86,35.22H208.17V41.14H221.5Z"/><path class="cls-1" d="M251.08,58.85a25.25,25.25,0,1,1-25.2,25.2A24.84,24.84,0,0,1,251.08,58.85Zm0,37.56c6.81,0,11.68-5.64,11.68-12.36s-4.87-12.26-11.68-12.26S239.3,77.34,239.3,84.05,244.36,96.41,251.08,96.41Z"/><path class="cls-1" d="M290.2,59.82,298.76,92l8.56-25.59L305,59.82h13.14L329.41,92l8.37-32.21H351.5l-14.4,48.46H323.28l-9.63-26.56-8.95,26.56H290.78l-14.3-48.46Z"/><circle class="cls-2" cx="73.23" cy="73.23" r="73.23"/><rect class="cls-1" x="84.69" y="61.77" width="20.68" height="20.68"/><path class="cls-1" d="M64,90.2a7.76,7.76,0,1,1-7.75-7.75H64V61.77H56.26A28.43,28.43,0,1,0,84.69,90.2V82.45H64Z"/><path class="cls-1" d="M92.44,51.43H115.7V30.76H92.44A28.46,28.46,0,0,0,64,59.19v2.58H84.69V59.19A7.77,7.77,0,0,1,92.44,51.43Z"/><polygon class="cls-3" points="64.01 82.45 84.69 82.45 84.69 82.45 84.69 61.77 84.69 61.77 64.01 61.77 64.01 82.45"/><path class="cls-1" d="M360.52,91.16a9,9,0,0,1,9.2,9.2,8.85,8.85,0,0,1-9.2,9,8.75,8.75,0,0,1-9-9A8.85,8.85,0,0,1,360.52,91.16Z"/><path class="cls-1" d="M412.63,107.12a26.22,26.22,0,0,1-10.77,2.35c-15.48,0-25.77-11.16-25.77-25.47s10.29-25.37,25.77-25.37a28.08,28.08,0,0,1,10.77,2.26V75a19,19,0,0,0-10.77-3.33,12.4,12.4,0,0,0,0,24.79A18.33,18.33,0,0,0,412.63,93Z"/><path class="cls-1" d="M444.08,58.63A25.42,25.42,0,1,1,418.71,84,25,25,0,0,1,444.08,58.63Zm0,37.82c6.86,0,11.75-5.69,11.75-12.45s-4.89-12.34-11.75-12.34S432.23,77.25,432.23,84,437.32,96.45,444.08,96.45Z"/><path class="cls-1" d="M491.1,65.39a14.3,14.3,0,0,1,12.44-6.76c6.86,0,12.25,3.14,15,8.82,2.35-5,7.06-8.82,14.4-8.82,9.41,0,16.76,7.45,16.76,17.93V108.4H536.36v-28c0-5.49-3.13-8.72-7.83-8.72s-8.14,3.23-8.14,8.72v28H507.07v-28c0-5.49-3.13-8.72-7.84-8.72s-7.83,2.94-8.13,8V108.4H477.78V59.61H491.1Z"/></g></g></svg>